<svg width="41" height="42" viewBox="0 0 41 42" fill="none" xmlns="http://www.w3.org/2000/svg">
<path d="M34.1348 9.1875L6.86401 9.18751" stroke="#FBFBFB" stroke-width="2" stroke-linecap="round" stroke-linejoin="round"/>
<path d="M16.7812 17.0625V27.5625" stroke="#FBFBFB" stroke-width="2" stroke-linecap="round" stroke-linejoin="round"/>
<path d="M24.2188 17.0625V27.5625" stroke="#FBFBFB" stroke-width="2" stroke-linecap="round" stroke-linejoin="round"/>
<path d="M31.6563 9.1875V34.125C31.6563 34.4731 31.5257 34.8069 31.2932 35.0531C31.0607 35.2992 30.7454 35.4375 30.4167 35.4375H10.5833C10.2546 35.4375 9.93928 35.2992 9.70682 35.0531C9.47435 34.8069 9.34375 34.4731 9.34375 34.125V9.1875" stroke="#FBFBFB" stroke-width="2" stroke-linecap="round" stroke-linejoin="round"/>
<path d="M26.6981 9.1875V6.5625C26.6981 5.86631 26.4369 5.19863 25.9719 4.70634C25.507 4.21406 24.8764 3.9375 24.2189 3.9375H16.7814C16.1239 3.9375 15.4933 4.21406 15.0284 4.70634C14.5634 5.19863 14.3022 5.86631 14.3022 6.5625V9.1875" stroke="#FBFBFB" stroke-width="2" stroke-linecap="round" stroke-linejoin="round"/>
</svg>
